<svg xmlns="http://www.w3.org/2000/svg" viewBox="0 0 333.47 387.97"><defs><style>.cls-1,.cls-10,.cls-2,.cls-5{fill:#a1aaba;}.cls-1,.cls-10,.cls-11,.cls-2,.cls-4,.cls-7{stroke:#5d677a;}.cls-1,.cls-10,.cls-11,.cls-2,.cls-4,.cls-7,.cls-8,.cls-9{stroke-linecap:round;stroke-linejoin:round;}.cls-1{stroke-width:2.86px;}.cls-2,.cls-4{stroke-width:3.58px;}.cls-3{fill:#d0d3da;}.cls-11,.cls-4,.cls-7,.cls-9{fill:none;}.cls-6{fill:#5d677a;}.cls-7{stroke-width:2.69px;}.cls-8{fill:#f8f5e7;stroke-width:3px;}.cls-8,.cls-9{stroke:#8f8c82;}.cls-9{stroke-width:5px;}.cls-10,.cls-11{stroke-width:3.28px;}.cls-12{fill:#e06370;}</style></defs><title>Ресурс 2</title><g id="Слой_2" data-name="Слой 2"><g id="Слой_1-2" data-name="Слой 1"><path class="cls-1" d="M119,209.58c-32.72,28-37.44,70-42.41,112l237.56-13c-23.31-44.89,0-85-50.51-126.73Z"/><path class="cls-2" d="M92.56,86.6c-6.79,13.5-6.92,28.21-11.51,43.85-1.51,5.14-5.79,11-12.66,14.92,1.4,1.43,7.14,3,9.35,3.42-2.36,1.14-13.36,3.84-14.32,5.16.85,2.63,9.37,3.24,11.06,4.73-3,.68-13.32.42-15.58,1.75,3.91,4.36,11.81,5.16,16.21,7.61-2.72,1.46-5.82.71-8.31,2.75,5.73,5.26,15,5,19.79,8.17-1.73,1.61-5.51,2.32-6.49,3.4C81.92,186,95.78,196,105,200.58c16.78,8.42,45.34,16.65,53.84,16.55,33.23-.39,63.52-9.26,92.67-23.95,10.08-5.08,32.09-28.42,40.57-37.67-3.1,0-6.89-.36-10.3-.39,3.63-1.79,21.31-15.49,21.27-18.4-2.61-.12-6.86,0-8.77-.75,2-2.35,7-5.38,9.52-8a85,85,0,0,1-13.73-.1c2.63-2.16,13.94-11,14-13.63-4.76.64-16.1,2.5-20.4,1.27,2-3,6.86-2.6,8-6.76-12.22,0-29.3-18.62-38.25-26.4-9.59-8.34-33.49-24.45-44.52-27.74-34.74-10.39-75.11-10.26-100.22,12C103,71.51,96.41,79,92.56,86.6Z"/><path class="cls-3" d="M280,159.08c-1.48-.53-7.8.22-9.71.44,3.16-5.75,3.75-7.52,9-12.27.83.15,1.15-.44,1-1.79-2.88-.69-5.91,1-9,.37,3.07-4.62,8.49-9.61,10.52-14.31-4.69-.9-10.2-3.4-14.55-5.42,3.72-2.65,5.48-4.25,9.61-6.17a67.77,67.77,0,0,0-10.77-7.1c2.85-1.57,4.91-5.09,9-4.52-2.71-1.58-6-5.67-8.62-10.31l-1.24-2.38,4.91,4.2c5.15,4.2,10.82,8.11,16.22,9.8l2.18.53-.84.54c-1.73.93-4,1.55-5.54,3.78a1.79,1.79,0,0,0,1,2.72c2.54.73,6.8.52,10.7.13,2-.2,4-.45,5.85-.7l.57-.08-1.5,1.5c-.68.66-1.46,1.37-2.31,2.11-3,2.67-6.26,5.22-7.55,6.29a1.79,1.79,0,0,0,1,3.17A63.94,63.94,0,0,0,297,130l1.62-.05-1,.77a32.78,32.78,0,0,0-4.75,4.13,1.79,1.79,0,0,0,.74,2.82,16,16,0,0,0,4.44.71l1.76.06-.12.13a83.92,83.92,0,0,1-7.61,6.85A94.72,94.72,0,0,1,281,153.5a1.79,1.79,0,0,0,.77,3.4c1.62,0,3.45.12,5.25.22l1.08.05-1.13,1.22c-2.52,2.69-5.51,5.84-8.72,9.13l-3.82,3.77.11-1C275.64,165.78,280.4,162.69,280,159.08Z"/><path class="cls-3" d="M90.82,189.66a71.69,71.69,0,0,1-7.26-5.91l-.81-.82,1.37-.55a13.09,13.09,0,0,0,3.68-2.11,1.79,1.79,0,0,0-.23-2.8c-3.94-2.62-10-3-15-5.16l-2.25-1.14,1.13-.23A13,13,0,0,0,76,169.62a1.79,1.79,0,0,0,0-3.14c-3.55-2-8.66-2.86-12.47-4.83l-.44-.27.92-.1c.76-.07,1.6-.13,2.53-.18a73.67,73.67,0,0,0,8.36-.67,1.79,1.79,0,0,0,.75-3.12l-.09-.08A8.82,8.82,0,0,0,72.67,156c-1-.3-2.26-.6-3.35-.89-.74-.2-1.37-.39-1.89-.56l-.65-.25,1.87-.64,2.36-.75c2.89-.89,6.21-1.85,7.49-2.47a1.79,1.79,0,0,0-.45-3.37,41,41,0,0,1-4.81-1.29l-1.33-.5,2.28-1.76A26.92,26.92,0,0,0,82.77,131l.1-.36.26.66c.14,2-2.87,3.33-2.06,6.48,1.67-.07,4.09-2.07,6.05-1.37.63,5.29-3.19,7.91-6.06,11.93,2.39,1.39,6.16,1.16,8.19,3.13-2.19,2.52-6,2.51-8.63,4.2,3.53,3.41,11.26,3,15.92,5.82-4,3.17-10.38,3.13-15,4.77,4.47,3.08,10.67,2.63,14.54,6.89-1.73,1.87-3.42,2-5.55,3,2.89,3.1,5.43,3,8,4.78a28.2,28.2,0,0,1-8.28,3.85,17.59,17.59,0,0,0,1.61,3.43l2.63,3.91Z"/><path class="cls-2" d="M169.62,54.17c2.6-12.63,6.5-50.54,10.08-51.64,20.87-6.36,41.19,30.36,49.9,44.89,2,3.35,9.92,21.28,9.09,24.72-3.52,14.46-49.76-2.94-58.52-6.55-5.41-2.23-8.4-6.67-11.23-8.61C169.15,56.29,169.38,55.34,169.62,54.17Z"/><path class="cls-2" d="M91.93,94.77C89.76,86.66,89.21,78,87,69.44c-1.61-6.25-11-36.5-8.32-41.59C88.11,10.09,139,47.23,147.11,56.68c14.08,16.44-45,47.39-54.66,39.95C92.27,96,92.09,95.39,91.93,94.77Z"/><path class="cls-4" d="M171,159.21c-2,28.58,52.89,13.24,36.7-1.49"/><path class="cls-4" d="M141.14,171.94c4.12,13.14,30.44,11.26,31.41-1.38"/><path class="cls-4" d="M169.06,177c.87,5.86,10.86,9.33,14.36,2.48"/><path class="cls-4" d="M186.45,144.07c7.64-8.8,29.44-17,43.52-9.45"/><path class="cls-4" d="M109.43,156.75c5.89-7.27,26.18-16.3,42.44-7.59"/><path class="cls-5" d="M94.91,89.89c-14.2,31.19,25,14.4,40.15,7.1,10-4.84,37.81-35.63,16.67-41.15-.16,0-.23-.25-.34-.37-23.62-3.34-43.24,22.58-55,31.31Q95.59,88.41,94.91,89.89Z"/><path class="cls-5" d="M167,54.07c-3.91,2.74-4.65,7.59-1.28,12.62,9.9,14.77,73,27.45,77.48,15.51,5.18-14-54.67-29.26-68-29.87C174.95,53.19,168.57,52.94,167,54.07Z"/><path class="cls-3" d="M100.36,84.89C97.71,78.1,88.76,48.67,87.1,44.08c-.46-1.28-.6-2.57.51-3.5,7.1-5.91,41.3,20.53,38.85,28.54,0,.11-.24,0-.35,0-1.3,4.57-9.18,11-13.6,12.41-2.16.71-9.19,6.12-11.49,4.76A5.12,5.12,0,0,1,100.36,84.89Z"/><path class="cls-3" d="M188.55,55.41c.1-6.39-.32-39.35,2.71-40,8-1.8,32.87,37.56,34.22,45.23,2,11.65-32.43,1.75-37-.63a23.13,23.13,0,0,0,0-4.4C188.55,55.53,188.55,55.47,188.55,55.41Z"/><path class="cls-6" d="M174.64,163.17c-7.45,2.4-16.82,1.95-18.61-2.58-2.82-7.14,22.83-13.55,27.88-4.53C182.85,159.28,179.09,161.73,174.64,163.17Z"/><path class="cls-4" d="M184.71,135.89c-.67,3.13-.74,7.55.59,10.24"/><path class="cls-4" d="M227.4,126.56c1.94,4,4.36,8.37,4.34,12.88"/><path class="cls-4" d="M151.33,141.76c.2,3.47.87,6.94-.11,10.21"/><path class="cls-4" d="M107.55,159.49c.67-3.27.3-5.83,1.6-9.08"/><path class="cls-7" d="M196.54,104.2c-1-3.12-2-8.8-3-11.06"/><path class="cls-7" d="M202,103.13a71.49,71.49,0,0,0-1.63-12.5"/><path class="cls-7" d="M120.24,115.07a96,96,0,0,1-3.43-11.7"/><path class="cls-7" d="M125.84,113.65c-1.33-3.49-1.74-8.84-3-12.11"/><path class="cls-7" d="M102,188.36c4.89-7.18,15.72-13.45,23.89-16.77"/><path class="cls-7" d="M110.56,193.43c2.57-6.14,11.21-13.58,17.66-16.1"/><path class="cls-7" d="M225.84,152.89c11-2.46,24.81-3.43,35.21.24"/><path class="cls-7" d="M226.57,159c10.32-1.44,22.42-.63,31.54,3.05"/><path class="cls-5" d="M281.58,216.74c0,15.89-34.69,28.77-77.49,28.77s-77.49-12.88-77.49-28.77,33.75-20.32,77.49-28.77C263.3,176.54,281.58,200.85,281.58,216.74Z"/><ellipse class="cls-3" cx="190.5" cy="268.72" rx="45.2" ry="50.58"/><path class="cls-8" d="M21.58,301.71c-2.12-10.75,2.58-13.2,8.24-16.34l106.32-43.51c8.55-3.7,17.85-3.13,22,3.71l33.6,77.56c3.09,6.93,3,15.56,6.59,24.58-9.33-5.22-14.71-13.07-19.22-19.31l-108.43,44c-9.24,4.93-18.55,3.81-21.86-4.29Z"/><line class="cls-9" x1="43.75" y1="300.13" x2="140.74" y2="259.97"/><line class="cls-9" x1="52.55" y1="324.61" x2="149.54" y2="284.44"/><line class="cls-9" x1="61.58" y1="348.98" x2="158.57" y2="308.81"/><path class="cls-8" d="M203.6,218.2c7.24-8.22,12.05-6,18-3.39l99.17,58c8.13,4.54,13.33,12.28,10.4,19.69L290,366.31c-3.63,6.67-10.55,11.81-15.51,20.17-1.53-10.58,1.44-19.63,3.65-27L177.26,300.1c-9.53-4.34-14.3-12.41-9.88-20Z"/><line class="cls-9" x1="218.32" y1="234.84" x2="309.17" y2="287.45"/><line class="cls-9" x1="204.24" y1="256.7" x2="295.08" y2="309.31"/><line class="cls-9" x1="190.37" y1="278.69" x2="281.21" y2="331.3"/><path class="cls-10" d="M326.49,304.93c12.34,20.92-.91,44.2-25.16,52-11.8,1-15.38.79-25.79-5-16.35-12.23-16-26.6,1.79-24.95C269,316,274,301.82,291.61,301.77c-5.65-10.6-4.93-17.75,8.78-17.29C312.36,288.18,316.81,289.75,326.49,304.93Z"/><path class="cls-3" d="M291.16,355.66a30.92,30.92,0,0,1-22.81-13.1c-6.53-9.77-2.32-14.39,10.34-14.5-8.46-15.77-2.24-24.13,14.45-24.9-5.88-12.17-4.11-17.63,6.78-17.08,5.44.7,10.21,3.2,14.64,6.68-6.87,5.48-10.06,12.33-9.78,20.46-8.94,2.64-14.11,10.75-11.23,21.38C284.66,340.76,287.88,348,291.16,355.66Z"/><path class="cls-11" d="M276.54,327.67q6.37,8.27,18.43,9.14"/><path class="cls-11" d="M290.85,301.38c7.7,1.18,12.88,7.67,16.3,14.05"/><path class="cls-10" d="M49.23,355.51C25,354.15,13,330.21,20,305.73c5.69-10.39,7.89-13.23,18.5-18.66,19.25-6.8,31,1.47,19.75,15.35,13.69-.88,22.75,11.16,13,25.86,12,1.19,17.5,5.75,9.5,16.91C71,353.07,67.23,355.9,49.23,355.51Z"/><path class="cls-3" d="M26.66,298a30.92,30.92,0,0,1,23.56-11.69c11.75,0,13.25,6.06,6.32,16.65,17.81,1.73,21.31,11.54,12.68,25.85,13.39,1.88,16.94,6.38,10.44,15.13-3.6,4.13-8.34,6.71-13.69,8.46-.74-8.76-4.66-15.22-11.58-19.5,2.77-8.9-1.1-17.71-11.54-21.21C42.66,300.83,34.84,299.48,26.66,298Z"/><path class="cls-11" d="M58.06,301.35q-10.42.71-17.83,10.25"/><path class="cls-11" d="M72,327.85c-5.26,5.75-13.53,6.45-20.74,5.75"/><path class="cls-12" d="M39.78,102.19c-1.95-4,.43-13.85,7.36-13.42,5.83.36,9.41,4.81,11.18,11.1,2.65,9.45-3.5,17.22-6.8,26.25"/><path class="cls-12" d="M39.92,102c-2-4-11.26-8.08-15.13-2.31-3.25,4.85-1.91,10.4,2,15.62,5.9,7.85,15.8,7.69,25,10.56"/><path class="cls-12" d="M57.78,55.19c-1.95-4,.43-13.85,7.36-13.42,5.83.36,9.41,4.81,11.18,11.1,2.65,9.45-3.5,17.22-6.8,26.25"/><path class="cls-12" d="M57.92,55c-2-4-11.26-8.08-15.13-2.31-3.25,4.85-1.91,10.4,2,15.62,5.9,7.85,15.8,7.69,25,10.56"/><path class="cls-12" d="M16.81,45.92c-1.95-4,.43-13.85,7.36-13.42,5.83.36,9.41,4.81,11.18,11.1,2.65,9.45-3.5,17.22-6.8,26.25"/><path class="cls-12" d="M17,45.73c-2-4-11.26-8.08-15.13-2.31-3.25,4.85-1.91,10.4,2,15.62,5.9,7.85,15.8,7.69,25,10.56"/><path class="cls-12" d="M259.71,32.15c1.51-4.16,10.28-9.29,14.78-4,3.78,4.45,3.06,10.12-.26,15.75-5,8.46-14.84,9.41-23.63,13.29"/><path class="cls-12" d="M259.94,32.13c1.49-4.16-2-13.72-8.82-12.51-5.75,1-8.82,5.83-9.86,12.28-1.57,9.69,5.41,16.72,9.69,25.32"/><path class="cls-8" d="M97.64,247.22c2.11-10.75,7.39-11.24,13.81-12H226.33c9.31-.18,17.7,3.87,18.92,11.75L247,331.48c.23,7.58-3.15,15.52-3.21,25.24-6.66-8.37-8.67-17.67-10.48-25.16l-117-.34c-10.42,1.07-18.61-3.5-18.61-12.25Z"/><line class="cls-9" x1="118.75" y1="254.15" x2="223.74" y2="253.71"/><line class="cls-9" x1="117.63" y1="280.13" x2="222.61" y2="279.7"/><line class="cls-9" x1="116.76" y1="306.12" x2="221.74" y2="305.68"/></g></g></svg>